<svg id="Layer_1" data-name="Layer 1" xmlns="http://www.w3.org/2000/svg" viewBox="0 0 220 50.3"><defs><style>.cls-1{fill:#fff;}</style></defs><title>Untitled-1</title><path class="cls-1" d="M61.58,27q-0.27,2.16-.35,3.13a13.39,13.39,0,0,0,0,1.69,7.13,7.13,0,0,0-1.84,0,9.11,9.11,0,0,0,.21-0.91q0.11-.6.35-2.1l0.79-5.4q0.69-5,1.05-8.37h0.43q1.75,3.42,4.52,8.45l2.65,4.76h0L76.46,15h0.43q0.26,3.36.85,8.38,0.35,3,.67,5.39,0.21,1.53.32,2.13a7.73,7.73,0,0,0,.18.88,8,8,0,0,0-1.22-.08l-1.2,0q-0.26-3.36-.85-8.38l-0.42-3.5h0q-0.92,1.59-1.9,3.44-2.71,5-4.3,8.51H68.58q-1.66-3.42-4.32-8.45l-1.84-3.44h0L62,23.39Z"/><path class="cls-1" d="M82.6,30.4A6,6,0,0,1,81,26.07,6.12,6.12,0,0,1,82.7,21.6a5.84,5.84,0,0,1,4.37-1.72,5.38,5.38,0,0,1,4.09,1.66,6.06,6.06,0,0,1,1.57,4.34,6.12,6.12,0,0,1-1.67,4.47,5.85,5.85,0,0,1-4.38,1.71A5.38,5.38,0,0,1,82.6,30.4Zm6.93-.68a6.88,6.88,0,0,0,1-3.91,6.34,6.34,0,0,0-.94-3.74,3.11,3.11,0,0,0-2.69-1.32,3,3,0,0,0-2.64,1.47,6.9,6.9,0,0,0-1,3.92,6.31,6.31,0,0,0,.94,3.74,3.12,3.12,0,0,0,2.69,1.31A3.05,3.05,0,0,0,89.52,29.72Z"/><path class="cls-1" d="M99.2,32.06A4.3,4.3,0,0,1,95.7,30.4a6.69,6.69,0,0,1-1.34-4.34,6.67,6.67,0,0,1,1.45-4.47,4.73,4.73,0,0,1,3.78-1.71,4.33,4.33,0,0,1,3.53,1.66l0.29,0.4q0-3.54,0-6.3,0-1-.07-1.46a5.21,5.21,0,0,0-.08-0.65,7.77,7.77,0,0,0,2.28,0,3.68,3.68,0,0,0-.09.65q0,0.42-.05,1.46-0.06,3-.06,7l0.06,7.08q0,0.88,0,1.3a7.13,7.13,0,0,0,.1.8,8,8,0,0,0-1-.06,7.94,7.94,0,0,0-1,.06,4.74,4.74,0,0,0,.08-0.62q0-.42.1-1.48l0-.49a6,6,0,0,1-.73,1.16A4.53,4.53,0,0,1,99.2,32.06ZM100,20.91a2.84,2.84,0,0,0-2.54,1.33,7.17,7.17,0,0,0-.87,3.89,6.53,6.53,0,0,0,.85,3.63A2.73,2.73,0,0,0,99.84,31a3,3,0,0,0,2.6-1.39,6.53,6.53,0,0,0,1-3.77,6.42,6.42,0,0,0-.89-3.67A2.89,2.89,0,0,0,100,20.91Z"/><path class="cls-1" d="M113.61,32.06a5.24,5.24,0,0,1-4-1.66A6.13,6.13,0,0,1,108,26.06a6.51,6.51,0,0,1,1.51-4.47,5,5,0,0,1,3.93-1.71h0a4.86,4.86,0,0,1,3.74,1.39,5.34,5.34,0,0,1,1.28,3.41q0,0.42,0,.86l0,0.66h0q-0.54-.08-1.74-0.14T114.37,26h-4.16v0.45a5.3,5.3,0,0,0,1,3.5,3.62,3.62,0,0,0,2.93,1.23,5,5,0,0,0,2.11-.45,5.67,5.67,0,0,0,1.81-1.36l0.22,0.27c-0.06.21-.1,0.39-0.13,0.53s-0.06.33-.08,0.54a7,7,0,0,1-2.07,1A8.52,8.52,0,0,1,113.61,32.06Zm2.7-7.11V24.47a4.3,4.3,0,0,0-.79-2.69,2.5,2.5,0,0,0-2.08-1A2.61,2.61,0,0,0,111,22.2a7,7,0,0,0-.75,2.75h6Z"/><path class="cls-1" d="M121.78,29.72q0.07-3,.07-7.06l-0.06-7q0-1,0-1.39a4.51,4.51,0,0,0-.1-0.72,7.69,7.69,0,0,0,2.27,0,4.83,4.83,0,0,0-.08.65q0,0.42-.07,1.46-0.06,3-.06,7l0.06,7.08q0,0.88,0,1.3a6.85,6.85,0,0,0,.1.8,9.71,9.71,0,0,0-1.14-.06,9.57,9.57,0,0,0-1.13.06,6,6,0,0,0,.08-0.67Q121.76,30.73,121.78,29.72Z"/><path class="cls-1" d="M133.34,22.36a2.75,2.75,0,0,0-.94-1.2,2.38,2.38,0,0,0-1.4-.43,1.94,1.94,0,0,0-2,2,1.76,1.76,0,0,0,.59,1.37,4.58,4.58,0,0,0,1.9.85,5.66,5.66,0,0,1,2.5,1.16,2.66,2.66,0,0,1,.72,2,3.66,3.66,0,0,1-1.24,2.8,4.3,4.3,0,0,1-3,1.14,7.36,7.36,0,0,1-1.89-.22,3.39,3.39,0,0,1-1.33-.66q0.23-.49.37-0.86c0.09-.24.2-0.54,0.31-0.88a3.37,3.37,0,0,0,1.18,1.3,3.05,3.05,0,0,0,1.65.46,2.5,2.5,0,0,0,1.74-.62,2,2,0,0,0,.68-1.58,1.71,1.71,0,0,0-.58-1.35,4.8,4.8,0,0,0-1.93-.86,5.2,5.2,0,0,1-2.52-1.23,3.2,3.2,0,0,1-.72-2.25,3.18,3.18,0,0,1,1.09-2.44,3.83,3.83,0,0,1,2.68-1,6,6,0,0,1,1.64.22,4.31,4.31,0,0,1,1.33.61,8.88,8.88,0,0,0-.42.8C133.59,21.74,133.47,22,133.34,22.36Z"/><path class="cls-1" d="M146.48,21.2v1.41l0.06,7.11q0,0.88,0,1.3a6.83,6.83,0,0,0,.1.8,9.71,9.71,0,0,0-1.14-.06,9.57,9.57,0,0,0-1.13.06,6,6,0,0,0,.08-0.67q0-.42.05-1.43,0.08-3,.07-7.1v-1.4l-0.75,0a3.14,3.14,0,0,0-.5.07,1.89,1.89,0,0,0-.39.11A5.71,5.71,0,0,0,143,20a2.86,2.86,0,0,0,1,.23h0.61a8,8,0,0,1,1.4-4.64,3.93,3.93,0,0,1,3.2-2.08,1.35,1.35,0,0,1,.55.09,8.22,8.22,0,0,0-.08,1.06,8.53,8.53,0,0,0,.08,1.09,2.92,2.92,0,0,0-1.49-.41,1.68,1.68,0,0,0-1.8,1,9.18,9.18,0,0,0,0,3.84h0.56a10.48,10.48,0,0,0,1.19-.07A4.06,4.06,0,0,0,149.1,20q0,0.43,0,.74c0,0.21,0,.45,0,0.74a1.68,1.68,0,0,0-.4-0.13,3.28,3.28,0,0,0-.48-0.07Z"/><path class="cls-1" d="M151.65,30.4a6,6,0,0,1-1.57-4.33,6.12,6.12,0,0,1,1.68-4.48,5.84,5.84,0,0,1,4.37-1.72,5.38,5.38,0,0,1,4.09,1.66,6.06,6.06,0,0,1,1.57,4.34,6.12,6.12,0,0,1-1.67,4.47,5.85,5.85,0,0,1-4.38,1.71A5.38,5.38,0,0,1,151.65,30.4Zm6.93-.68a6.87,6.87,0,0,0,1-3.91,6.34,6.34,0,0,0-.94-3.74,3.11,3.11,0,0,0-2.69-1.32,3,3,0,0,0-2.64,1.47,6.9,6.9,0,0,0-1,3.92,6.31,6.31,0,0,0,.94,3.74,3.12,3.12,0,0,0,2.69,1.31A3.05,3.05,0,0,0,158.57,29.72Z"/><path class="cls-1" d="M164.79,29.72q0-1.66,0-3.78t0-3.72c0-.63,0-1.09-0.06-1.37s-0.06-.53-0.1-0.73a8.58,8.58,0,0,0,2.39,0,6.2,6.2,0,0,0-.11.69q0,0.42-.11,1.42V22.3a6.77,6.77,0,0,1,.68-1,3,3,0,0,1,3-1.42L170.9,20a7.4,7.4,0,0,0-.32,1,5.73,5.73,0,0,0-.11,1.09,2.18,2.18,0,0,0-.61-0.27,2.66,2.66,0,0,0-.68-0.08,2.07,2.07,0,0,0-1.83.94,4.92,4.92,0,0,0-.63,2.73v0.49q0,2.11,0,3.78,0,1.05.08,1.47a4.74,4.74,0,0,0,.08.63,9.8,9.8,0,0,0-1.15-.06,9.65,9.65,0,0,0-1.14.06,7.43,7.43,0,0,0,.1-0.74C164.76,30.8,164.77,30.35,164.79,29.72Z"/><path class="cls-1" d="M179.37,28.81q1.15-2.37,2.49-5.33,2.27-5,3.61-8.44h0.59q1.35,3.4,3.54,8.42,1.29,3,2.38,5.35l1.42,3q-0.6-.06-1.35-0.06a13.26,13.26,0,0,0-1.34.06q-0.16-.63-0.37-1.24t-0.7-1.77l-1.37-3.28a26.25,26.25,0,0,0-3-.2,12.76,12.76,0,0,0-3.07.2q-0.76,1.75-1.36,3.28-0.44,1.08-.65,1.68t-0.37,1.33a7.19,7.19,0,0,0-1-.06,7.12,7.12,0,0,0-1,.06,7.45,7.45,0,0,0,.43-0.78Q178.57,30.45,179.37,28.81Zm3.72-5.47-0.26.62a14.15,14.15,0,0,0,2.39.14,21.74,21.74,0,0,0,2.38-.17l-0.24-.57-2.11-4.86h0Q184.24,20.66,183.09,23.34Z"/><path class="cls-1" d="M195.57,22.22q0-1-.05-1.39a5.58,5.58,0,0,0-.09-0.72,6.31,6.31,0,0,0,1.08.08,6.1,6.1,0,0,0,1.06-.08,5.45,5.45,0,0,0-.11.66q0,0.42-.11,1.44l0,0.3a8,8,0,0,1,.6-0.9,4.73,4.73,0,0,1,7.18-.19,6,6,0,0,1,1.35,4.08,7.17,7.17,0,0,1-1.5,4.73A4.85,4.85,0,0,1,201,32.06a4.09,4.09,0,0,1-3.37-1.64l-0.16-.2,0.06,4.52q0,1,.05,1.39a6,6,0,0,0,.09.72,10.79,10.79,0,0,0-2.28,0,5.6,5.6,0,0,0,.09-0.72q0-.42.05-1.39,0.06-2.7.06-6.27T195.57,22.22ZM200.78,31a2.89,2.89,0,0,0,2.58-1.33,7.07,7.07,0,0,0,.88-3.88,6.55,6.55,0,0,0-.85-3.63A2.73,2.73,0,0,0,201,20.91a2.88,2.88,0,0,0-2.58,1.34,7.18,7.18,0,0,0-.88,3.92h0a6.48,6.48,0,0,0,.84,3.6A2.72,2.72,0,0,0,200.78,31Z"/><path class="cls-1" d="M209.11,22.22q0-1-.05-1.39a6,6,0,0,0-.09-0.72,6.31,6.31,0,0,0,1.07.08,6.11,6.11,0,0,0,1.06-.08,5.2,5.2,0,0,0-.11.66q0,0.42-.11,1.44l0,0.3a8,8,0,0,1,.6-0.9,4.73,4.73,0,0,1,7.18-.19A6,6,0,0,1,220,25.52a7.17,7.17,0,0,1-1.5,4.73,4.85,4.85,0,0,1-3.93,1.81,4.09,4.09,0,0,1-3.37-1.64l-0.16-.2,0.06,4.52q0,1,.05,1.39a5.72,5.72,0,0,0,.09.72,9.63,9.63,0,0,0-1.15-.06,9.5,9.5,0,0,0-1.14.06,6,6,0,0,0,.09-0.72q0-.42.05-1.39,0.06-2.7.06-6.27T209.11,22.22ZM214.32,31a2.89,2.89,0,0,0,2.58-1.33,7.07,7.07,0,0,0,.88-3.88,6.56,6.56,0,0,0-.85-3.63,2.73,2.73,0,0,0-2.41-1.28,2.89,2.89,0,0,0-2.58,1.34,7.18,7.18,0,0,0-.88,3.92h0a6.48,6.48,0,0,0,.84,3.6A2.72,2.72,0,0,0,214.32,31Z"/><path class="cls-1" d="M43.6,0L22.54,14.41,1.47,0S-7.68,46.56,19.63,50.3c0,0-17.31-8.45-12.33-34.65l15.24,8.73,15.24-8.73c5,26.19-12.33,34.65-12.33,34.65C52.75,46.56,43.6,0,43.6,0Z"/></svg>